<?xml version="1.0" encoding="UTF-8" standalone="no"?>
<!DOCTYPE svg PUBLIC "-//W3C//DTD SVG 1.1//EN" "http://www.w3.org/Graphics/SVG/1.1/DTD/svg11.dtd">
<svg version="1.1" xmlns="http://www.w3.org/2000/svg" xmlns:xlink="http://www.w3.org/1999/xlink" preserveAspectRatio="xMidYMid meet" viewBox="0 0 640 640" width="640" height="640"><defs><path d="M407.69 108.46C418.74 108.46 427.69 117.42 427.69 128.46C427.69 183.44 427.69 328.36 427.69 383.33C427.69 394.38 418.74 403.33 407.69 403.33C371.69 403.33 283.69 403.33 247.69 403.33C236.65 403.33 227.69 394.38 227.69 383.33C227.69 328.36 227.69 183.44 227.69 128.46C227.69 117.42 236.65 108.46 247.69 108.46C283.69 108.46 371.69 108.46 407.69 108.46Z" id="d9DS1ITsr7"></path><path d="M287.18 181.54C298.23 181.54 307.18 190.49 307.18 201.54C307.18 221.9 307.18 262.97 307.18 283.33C307.18 294.38 298.23 303.33 287.18 303.33C258.1 303.33 190.87 303.33 161.79 303.33C150.75 303.33 141.79 294.38 141.79 283.33C141.79 262.97 141.79 221.9 141.79 201.54C141.79 190.49 150.75 181.54 161.79 181.54C190.87 181.54 258.1 181.54 287.18 181.54Z" id="b4wK1nnBj"></path><path d="M411.67 369.36C411.67 377.64 405 384.36 396.79 384.36C388.59 384.36 381.92 377.64 381.92 369.36C381.92 361.08 388.59 354.36 396.79 354.36C405 354.36 411.67 361.08 411.67 369.36Z" id="a1EAbiyhpo"></path><path d="M405.78 313.6L405.89 313.62L406 313.64L406.11 313.66L406.21 313.69L406.31 313.73L406.4 313.77L406.5 313.81L406.59 313.86L406.68 313.92L406.76 313.98L406.84 314.04L406.92 314.11L407 314.19L407.08 314.26L407.15 314.34L407.22 314.43L407.29 314.52L407.36 314.61L407.43 314.71L407.49 314.81L407.56 314.91L407.62 315.02L407.68 315.13L407.73 315.24L407.79 315.36L407.85 315.47L407.9 315.6L407.96 315.72L408.01 315.85L408.06 315.97L408.11 316.11L408.16 316.24L408.21 316.37L408.26 316.51L408.31 316.65L408.36 316.79L408.41 316.93L408.46 317.08L410.98 326.12L411.78 326.36L413.53 326.95L415.24 327.61L416.93 328.33L418.58 329.1L418.71 329.17L427.22 324.47L427.36 324.4L427.5 324.33L427.63 324.27L427.77 324.2L427.91 324.14L428.04 324.08L428.18 324.02L428.31 323.96L428.44 323.9L428.58 323.85L428.71 323.8L428.83 323.75L428.96 323.71L429.09 323.66L429.21 323.62L429.34 323.58L429.46 323.55L429.58 323.52L429.7 323.49L429.82 323.47L429.93 323.45L430.05 323.43L430.16 323.42L430.27 323.41L430.38 323.41L430.49 323.41L430.6 323.42L430.71 323.43L430.81 323.44L430.92 323.46L431.02 323.49L431.12 323.52L431.22 323.56L431.31 323.6L431.41 323.65L431.5 323.7L431.59 323.76L431.68 323.83L431.77 323.9L431.86 323.98L444.23 335.81L444.31 335.89L444.39 335.97L444.46 336.06L444.52 336.15L444.58 336.24L444.63 336.33L444.68 336.43L444.72 336.52L444.75 336.62L444.78 336.72L444.81 336.82L444.83 336.93L444.84 337.03L444.85 337.14L444.86 337.25L444.85 337.36L444.85 337.47L444.84 337.58L444.83 337.69L444.81 337.8L444.79 337.92L444.76 338.04L444.73 338.15L444.7 338.27L444.66 338.39L444.62 338.51L444.57 338.63L444.52 338.75L444.47 338.87L444.42 339L444.36 339.12L444.3 339.24L444.23 339.37L444.17 339.49L444.1 339.62L444.03 339.74L443.95 339.87L443.87 339.99L443.8 340.12L443.71 340.24L438.8 348.36L438.9 348.54L439.71 350.11L440.47 351.72L441.15 353.36L441.77 355.04L442.02 355.79L451.48 358.21L451.63 358.24L451.78 358.27L451.93 358.31L452.07 358.35L452.22 358.39L452.36 358.43L452.5 358.47L452.63 358.52L452.77 358.56L452.9 358.61L453.03 358.66L453.16 358.71L453.28 358.77L453.4 358.82L453.52 358.88L453.63 358.94L453.75 359L453.85 359.06L453.96 359.12L454.06 359.19L454.16 359.26L454.25 359.33L454.34 359.4L454.42 359.48L454.51 359.55L454.58 359.63L454.65 359.71L454.72 359.8L454.78 359.88L454.84 359.97L454.89 360.06L454.94 360.16L454.98 360.25L455.02 360.35L455.05 360.45L455.08 360.55L455.1 360.66L455.12 360.77L455.13 360.88L455.13 360.99L455.13 377.72L455.13 377.84L455.12 377.95L455.1 378.06L455.08 378.16L455.05 378.26L455.02 378.36L454.98 378.45L454.94 378.55L454.89 378.63L454.84 378.72L454.78 378.81L454.72 378.89L454.65 378.97L454.58 379.04L454.51 379.12L454.42 379.19L454.34 379.26L454.25 379.33L454.16 379.4L454.06 379.46L453.96 379.52L453.85 379.59L453.75 379.65L453.63 379.7L453.52 379.76L453.4 379.82L453.28 379.87L453.16 379.93L453.03 379.98L452.9 380.03L452.77 380.08L452.63 380.13L452.5 380.18L452.36 380.23L452.22 380.28L452.07 380.32L451.93 380.37L451.78 380.42L451.63 380.47L451.48 380.51L442.02 382.92L441.77 383.68L441.15 385.35L440.47 387L439.71 388.61L438.9 390.18L438.81 390.34L443.71 398.44L443.8 398.57L443.87 398.69L443.95 398.82L444.03 398.94L444.1 399.07L444.17 399.19L444.23 399.32L444.3 399.44L444.36 399.57L444.42 399.69L444.47 399.81L444.52 399.93L444.57 400.06L444.62 400.18L444.66 400.3L444.7 400.41L444.73 400.53L444.76 400.65L444.79 400.77L444.81 400.88L444.83 400.99L444.84 401.11L444.85 401.22L444.85 401.33L444.86 401.44L444.85 401.55L444.84 401.65L444.83 401.76L444.81 401.86L444.78 401.96L444.75 402.06L444.72 402.16L444.68 402.26L444.63 402.35L444.58 402.44L444.52 402.54L444.46 402.62L444.39 402.71L444.31 402.8L444.23 402.88L431.86 414.71L431.77 414.79L431.68 414.86L431.59 414.92L431.5 414.98L431.41 415.04L431.31 415.09L431.22 415.13L431.12 415.16L431.02 415.19L430.92 415.22L430.81 415.24L430.71 415.26L430.6 415.27L430.49 415.27L430.38 415.27L430.27 415.27L430.16 415.26L430.05 415.25L429.93 415.23L429.82 415.22L429.7 415.19L429.58 415.16L429.46 415.13L429.34 415.1L429.21 415.06L429.09 415.02L428.96 414.98L428.83 414.93L428.71 414.88L428.58 414.83L428.44 414.78L428.31 414.72L428.18 414.67L428.04 414.61L427.91 414.55L427.77 414.48L427.63 414.42L427.5 414.35L427.36 414.28L427.22 414.22L418.74 409.53L418.58 409.61L416.93 410.39L415.24 411.11L413.53 411.77L411.78 412.36L410.98 412.6L408.46 421.64L408.41 421.79L408.36 421.93L408.31 422.07L408.26 422.21L408.21 422.34L408.16 422.48L408.11 422.61L408.06 422.74L408.01 422.87L407.96 423L407.9 423.12L407.85 423.24L407.79 423.36L407.73 423.48L407.68 423.59L407.62 423.7L407.56 423.81L407.49 423.91L407.43 424.01L407.36 424.11L407.29 424.2L407.22 424.29L407.15 424.37L407.08 424.46L407 424.53L406.92 424.61L406.84 424.67L406.76 424.74L406.68 424.8L406.59 424.85L406.5 424.9L406.4 424.95L406.31 424.99L406.21 425.03L406.11 425.06L406 425.08L405.89 425.1L405.78 425.12L405.66 425.13L405.54 425.13L388.04 425.13L387.93 425.13L387.81 425.12L387.7 425.1L387.58 425.08L387.48 425.06L387.37 425.03L387.27 424.99L387.17 424.95L387.07 424.9L386.98 424.85L386.88 424.8L386.79 424.74L386.71 424.67L386.62 424.61L386.54 424.53L386.46 424.46L386.38 424.37L386.3 424.29L386.23 424.2L386.16 424.11L386.09 424.01L386.02 423.91L385.96 423.81L385.89 423.7L385.83 423.59L385.77 423.48L385.72 423.36L385.66 423.24L385.61 423.12L385.55 423L385.5 422.87L385.46 422.74L385.41 422.61L385.36 422.48L385.32 422.34L385.28 422.21L385.24 422.07L385.2 421.93L385.16 421.79L385.13 421.64L382.61 412.6L381.81 412.36L380.06 411.77L378.35 411.11L376.66 410.39L375.01 409.61L374.81 409.51L366.37 414.18L366.24 414.26L366.11 414.34L365.98 414.41L365.85 414.48L365.72 414.55L365.59 414.61L365.46 414.68L365.33 414.74L365.2 414.8L365.07 414.85L364.94 414.91L364.81 414.96L364.69 415L364.56 415.05L364.44 415.08L364.31 415.12L364.19 415.15L364.07 415.18L363.94 415.21L363.82 415.23L363.7 415.25L363.59 415.26L363.47 415.27L363.35 415.27L363.24 415.27L363.13 415.27L363.02 415.26L362.91 415.25L362.8 415.23L362.69 415.2L362.59 415.18L362.49 415.14L362.38 415.1L362.29 415.06L362.19 415.01L362.09 414.95L362 414.89L361.91 414.83L361.82 414.75L361.73 414.68L349.36 402.85L349.28 402.76L349.2 402.68L349.13 402.59L349.07 402.51L349.02 402.42L348.97 402.33L348.92 402.23L348.88 402.14L348.85 402.04L348.83 401.95L348.8 401.85L348.79 401.75L348.78 401.65L348.77 401.54L348.77 401.44L348.77 401.33L348.78 401.23L348.79 401.12L348.81 401.01L348.83 400.89L348.86 400.78L348.88 400.67L348.92 400.55L348.95 400.44L348.99 400.32L349.03 400.2L349.08 400.08L349.13 399.96L349.18 399.83L349.23 399.71L349.29 399.58L349.34 399.46L349.4 399.33L349.47 399.2L349.53 399.07L349.6 398.94L349.66 398.81L349.73 398.68L349.8 398.54L349.88 398.41L354.77 390.33L354.69 390.18L353.88 388.61L353.12 387L352.44 385.35L351.82 383.68L351.57 382.92L342.11 380.51L341.96 380.47L341.81 380.42L341.66 380.37L341.52 380.32L341.37 380.28L341.23 380.23L341.09 380.18L340.96 380.13L340.82 380.08L340.69 380.03L340.56 379.98L340.43 379.93L340.31 379.87L340.19 379.82L340.07 379.76L339.95 379.7L339.84 379.65L339.74 379.59L339.63 379.52L339.53 379.46L339.43 379.4L339.34 379.33L339.25 379.26L339.17 379.19L339.08 379.12L339.01 379.04L338.94 378.97L338.87 378.89L338.81 378.81L338.75 378.72L338.7 378.63L338.65 378.55L338.6 378.45L338.57 378.36L338.54 378.26L338.51 378.16L338.49 378.06L338.47 377.95L338.46 377.84L338.46 377.72L338.46 360.99L338.46 360.88L338.47 360.77L338.49 360.66L338.51 360.55L338.54 360.45L338.57 360.35L338.6 360.25L338.65 360.16L338.7 360.06L338.75 359.97L338.81 359.88L338.87 359.8L338.94 359.71L339.01 359.63L339.08 359.55L339.17 359.48L339.25 359.4L339.34 359.33L339.43 359.26L339.53 359.19L339.63 359.12L339.74 359.06L339.84 359L339.95 358.94L340.07 358.88L340.19 358.82L340.31 358.77L340.43 358.71L340.56 358.66L340.69 358.61L340.82 358.56L340.96 358.52L341.09 358.47L341.23 358.43L341.37 358.39L341.52 358.35L341.66 358.31L341.81 358.27L341.96 358.24L342.11 358.21L351.57 355.79L351.82 355.04L352.44 353.36L353.12 351.72L353.88 350.11L354.69 348.54L354.78 348.38L349.88 340.28L349.8 340.14L349.73 340.01L349.66 339.87L349.6 339.74L349.53 339.61L349.47 339.48L349.4 339.35L349.34 339.23L349.29 339.1L349.23 338.98L349.18 338.85L349.13 338.73L349.08 338.61L349.03 338.49L348.99 338.37L348.95 338.25L348.92 338.13L348.88 338.02L348.86 337.9L348.83 337.79L348.81 337.68L348.79 337.57L348.78 337.46L348.77 337.35L348.77 337.25L348.77 337.14L348.78 337.04L348.79 336.94L348.8 336.84L348.83 336.74L348.85 336.64L348.88 336.55L348.92 336.45L348.97 336.36L349.02 336.27L349.07 336.18L349.13 336.09L349.2 336.01L349.28 335.92L349.36 335.84L361.73 324.01L361.82 323.93L361.91 323.86L362 323.79L362.09 323.73L362.19 323.67L362.29 323.63L362.38 323.58L362.49 323.54L362.59 323.51L362.69 323.48L362.8 323.46L362.91 323.44L363.02 323.42L363.13 323.42L363.24 323.41L363.35 323.41L363.47 323.42L363.59 323.43L363.7 323.44L363.82 323.46L363.94 323.48L364.07 323.5L364.19 323.53L364.31 323.56L364.44 323.6L364.56 323.64L364.69 323.68L364.81 323.73L364.94 323.78L365.07 323.83L365.2 323.89L365.33 323.94L365.46 324.01L365.59 324.07L365.72 324.14L365.85 324.2L365.98 324.28L366.11 324.35L366.24 324.42L366.37 324.5L374.85 329.19L375.01 329.1L376.66 328.33L378.35 327.61L380.06 326.95L381.81 326.36L382.61 326.12L385.13 317.08L385.16 316.93L385.2 316.79L385.24 316.65L385.28 316.51L385.32 316.37L385.36 316.24L385.41 316.11L385.46 315.97L385.5 315.85L385.55 315.72L385.61 315.6L385.66 315.47L385.72 315.36L385.77 315.24L385.83 315.13L385.89 315.02L385.96 314.91L386.02 314.81L386.09 314.71L386.16 314.61L386.23 314.52L386.3 314.43L386.38 314.34L386.46 314.26L386.54 314.19L386.62 314.11L386.71 314.04L386.79 313.98L386.88 313.92L386.98 313.86L387.07 313.81L387.17 313.77L387.27 313.73L387.37 313.69L387.48 313.66L387.58 313.64L387.7 313.62L387.81 313.6L387.93 313.59L388.04 313.59L405.54 313.59L405.66 313.59L405.78 313.6ZM394.7 345.04L393.67 345.14L392.66 345.28L391.65 345.46L390.66 345.67L389.69 345.92L388.73 346.2L387.79 346.52L386.86 346.88L385.95 347.26L385.07 347.68L384.2 348.13L383.35 348.62L382.53 349.13L381.72 349.67L380.94 350.24L380.19 350.83L379.45 351.46L378.75 352.11L378.07 352.78L377.42 353.48L376.79 354.2L376.2 354.95L375.63 355.72L375.1 356.51L374.59 357.32L374.12 358.15L373.68 358.99L373.28 359.86L372.91 360.75L372.58 361.65L372.28 362.56L372.02 363.5L371.79 364.44L371.61 365.4L371.46 366.37L371.36 367.36L371.3 368.35L371.27 369.36L371.3 370.36L371.36 371.36L371.46 372.34L371.61 373.32L371.79 374.28L372.02 375.22L372.28 376.15L372.58 377.07L372.91 377.97L373.28 378.86L373.68 379.72L374.12 380.57L374.59 381.4L375.1 382.21L375.63 383L376.2 383.77L376.79 384.51L377.42 385.24L378.07 385.94L378.75 386.61L379.45 387.26L380.19 387.88L380.94 388.48L381.72 389.05L382.53 389.59L383.35 390.1L384.2 390.58L385.07 391.03L385.95 391.45L386.86 391.84L387.79 392.19L388.73 392.51L389.69 392.8L390.66 393.05L391.65 393.26L392.66 393.44L393.67 393.58L394.7 393.68L395.74 393.74L396.79 393.76L397.85 393.74L398.89 393.68L399.92 393.58L400.93 393.44L401.94 393.26L402.93 393.05L403.9 392.8L404.86 392.51L405.8 392.19L406.73 391.84L407.64 391.45L408.52 391.03L409.39 390.58L410.24 390.1L411.06 389.59L411.87 389.05L412.65 388.48L413.4 387.88L414.13 387.26L414.84 386.61L415.52 385.94L416.17 385.24L416.8 384.51L417.39 383.77L417.96 383L418.49 382.21L419 381.4L419.47 380.57L419.91 379.72L420.31 378.86L420.68 377.97L421.01 377.07L421.31 376.15L421.57 375.22L421.8 374.28L421.98 373.32L422.13 372.34L422.23 371.36L422.29 370.36L422.32 369.36L422.29 368.35L422.23 367.36L422.13 366.37L421.98 365.4L421.8 364.44L421.57 363.5L421.31 362.56L421.01 361.65L420.68 360.75L420.31 359.86L419.91 358.99L419.47 358.15L419 357.32L418.49 356.51L417.96 355.72L417.39 354.95L416.8 354.2L416.17 353.48L415.52 352.78L414.84 352.11L414.13 351.46L413.4 350.83L412.65 350.24L411.87 349.67L411.06 349.13L410.24 348.62L409.39 348.13L408.52 347.68L407.64 347.26L406.73 346.88L405.8 346.52L404.86 346.2L403.9 345.92L402.93 345.67L401.94 345.46L400.93 345.28L399.92 345.14L398.89 345.04L397.85 344.98L396.79 344.96L395.74 344.98L394.7 345.04Z" id="diPRjSywK"></path><path d="M404.77 321.93L404.86 321.95L404.95 321.96L405.04 321.98L405.12 322.01L405.2 322.04L405.28 322.07L405.36 322.11L405.43 322.16L405.5 322.2L405.57 322.25L405.64 322.31L405.71 322.37L405.77 322.43L405.83 322.5L405.89 322.56L405.95 322.64L406.01 322.71L406.06 322.79L406.12 322.87L406.17 322.96L406.22 323.05L406.27 323.14L406.32 323.23L406.37 323.33L406.41 323.43L406.46 323.53L406.51 323.63L406.55 323.73L406.59 323.84L406.64 323.95L406.68 324.06L406.72 324.18L406.76 324.29L406.8 324.41L406.84 324.53L406.88 324.64L406.92 324.77L406.96 324.89L409.02 332.58L409.67 332.78L411.1 333.29L412.5 333.85L413.87 334.46L415.22 335.12L415.33 335.18L422.27 331.18L422.39 331.12L422.5 331.06L422.62 331L422.73 330.95L422.84 330.9L422.95 330.84L423.06 330.79L423.17 330.74L423.28 330.7L423.38 330.65L423.49 330.61L423.59 330.57L423.7 330.53L423.8 330.49L423.9 330.46L424 330.42L424.1 330.4L424.2 330.37L424.3 330.35L424.4 330.33L424.49 330.31L424.59 330.3L424.68 330.29L424.77 330.28L424.86 330.28L424.95 330.28L425.04 330.28L425.13 330.29L425.21 330.3L425.29 330.32L425.38 330.34L425.46 330.37L425.54 330.4L425.62 330.44L425.7 330.48L425.77 330.52L425.85 330.57L425.92 330.63L425.99 330.69L426.06 330.76L436.17 340.82L436.23 340.89L436.29 340.96L436.35 341.04L436.4 341.11L436.45 341.19L436.49 341.27L436.53 341.35L436.56 341.43L436.59 341.51L436.62 341.6L436.64 341.69L436.65 341.77L436.67 341.86L436.67 341.95L436.68 342.04L436.68 342.14L436.67 342.23L436.66 342.33L436.65 342.42L436.64 342.52L436.62 342.62L436.6 342.72L436.57 342.82L436.55 342.92L436.52 343.02L436.48 343.12L436.44 343.22L436.4 343.32L436.36 343.43L436.32 343.53L436.27 343.64L436.22 343.74L436.17 343.85L436.11 343.95L436.06 344.06L436 344.17L435.94 344.27L435.88 344.38L435.81 344.49L435.74 344.59L431.73 351.5L431.81 351.65L432.48 352.99L433.09 354.36L433.65 355.75L434.16 357.18L434.36 357.82L442.09 359.87L442.21 359.9L442.33 359.93L442.45 359.96L442.57 360L442.69 360.03L442.8 360.06L442.92 360.1L443.03 360.14L443.14 360.18L443.25 360.22L443.35 360.26L443.45 360.3L443.56 360.35L443.65 360.4L443.75 360.44L443.84 360.49L443.94 360.54L444.02 360.6L444.11 360.65L444.19 360.71L444.27 360.77L444.35 360.83L444.42 360.89L444.49 360.95L444.56 361.02L444.62 361.09L444.68 361.15L444.73 361.23L444.78 361.3L444.83 361.37L444.87 361.45L444.91 361.53L444.95 361.61L444.98 361.7L445 361.78L445.03 361.87L445.04 361.96L445.05 362.05L445.06 362.15L445.06 362.24L445.06 376.47L445.06 376.57L445.05 376.66L445.04 376.76L445.03 376.84L445 376.93L444.98 377.01L444.95 377.09L444.91 377.17L444.87 377.25L444.83 377.32L444.78 377.39L444.73 377.46L444.68 377.53L444.62 377.6L444.56 377.66L444.49 377.72L444.42 377.78L444.35 377.84L444.27 377.9L444.19 377.95L444.11 378.01L444.02 378.06L443.94 378.11L443.84 378.16L443.75 378.21L443.65 378.25L443.56 378.3L443.45 378.35L443.35 378.39L443.25 378.44L443.14 378.48L443.03 378.52L442.92 378.56L442.8 378.6L442.69 378.65L442.57 378.69L442.45 378.73L442.33 378.77L442.21 378.81L442.09 378.85L434.36 380.9L434.16 381.54L433.65 382.96L433.09 384.36L432.48 385.73L431.81 387.07L431.74 387.21L435.74 394.1L435.81 394.2L435.88 394.31L435.94 394.42L436 394.52L436.06 394.63L436.11 394.74L436.17 394.84L436.22 394.95L436.27 395.05L436.32 395.16L436.36 395.26L436.4 395.37L436.44 395.47L436.48 395.57L436.52 395.67L436.55 395.77L436.57 395.87L436.6 395.97L436.62 396.07L436.64 396.17L436.65 396.27L436.66 396.36L436.67 396.46L436.68 396.55L436.68 396.64L436.67 396.74L436.67 396.83L436.65 396.92L436.64 397L436.62 397.09L436.59 397.18L436.56 397.26L436.53 397.34L436.49 397.42L436.45 397.5L436.4 397.58L436.35 397.65L436.29 397.73L436.23 397.8L436.17 397.87L426.06 407.93L425.99 408L425.92 408.06L425.85 408.12L425.77 408.17L425.7 408.21L425.62 408.25L425.54 408.29L425.46 408.32L425.38 408.35L425.29 408.37L425.21 408.38L425.13 408.4L425.04 408.41L424.95 408.41L424.86 408.41L424.77 408.41L424.68 408.4L424.59 408.39L424.49 408.38L424.4 408.36L424.3 408.34L424.2 408.32L424.1 408.29L424 408.26L423.9 408.23L423.8 408.2L423.7 408.16L423.59 408.12L423.49 408.08L423.38 408.04L423.28 407.99L423.17 407.95L423.06 407.9L422.95 407.85L422.84 407.79L422.73 407.74L422.62 407.68L422.5 407.63L422.39 407.57L422.27 407.51L415.36 403.52L415.22 403.6L413.87 404.26L412.5 404.87L411.1 405.43L409.67 405.94L409.02 406.14L406.96 413.83L406.92 413.95L406.88 414.07L406.84 414.19L406.8 414.31L406.76 414.43L406.72 414.54L406.68 414.66L406.64 414.77L406.59 414.88L406.55 414.98L406.51 415.09L406.46 415.19L406.41 415.29L406.37 415.39L406.32 415.49L406.27 415.58L406.22 415.67L406.17 415.76L406.12 415.84L406.06 415.93L406.01 416.01L405.95 416.08L405.89 416.15L405.83 416.22L405.77 416.29L405.71 416.35L405.64 416.41L405.57 416.46L405.5 416.51L405.43 416.56L405.36 416.6L405.28 416.64L405.2 416.68L405.12 416.71L405.04 416.73L404.95 416.76L404.86 416.77L404.77 416.79L404.68 416.79L404.58 416.79L390.29 416.79L390.19 416.79L390.1 416.79L390.01 416.77L389.92 416.76L389.83 416.73L389.74 416.71L389.66 416.68L389.58 416.64L389.5 416.6L389.42 416.56L389.34 416.51L389.27 416.46L389.2 416.41L389.13 416.35L389.06 416.29L389 416.22L388.93 416.15L388.87 416.08L388.81 416.01L388.75 415.93L388.69 415.84L388.64 415.76L388.59 415.67L388.53 415.58L388.48 415.49L388.44 415.39L388.39 415.29L388.34 415.19L388.3 415.09L388.26 414.98L388.22 414.88L388.18 414.77L388.14 414.66L388.1 414.54L388.07 414.43L388.03 414.31L388 414.19L387.97 414.07L387.94 413.95L387.91 413.83L385.85 406.14L385.2 405.94L383.78 405.43L382.37 404.87L381 404.26L379.65 403.6L379.49 403.51L372.6 407.48L372.49 407.55L372.38 407.61L372.28 407.68L372.17 407.74L372.06 407.8L371.96 407.85L371.85 407.91L371.74 407.96L371.64 408.01L371.53 408.06L371.43 408.1L371.32 408.14L371.22 408.18L371.12 408.22L371.02 408.25L370.91 408.28L370.81 408.31L370.71 408.34L370.61 408.36L370.52 408.37L370.42 408.39L370.32 408.4L370.23 408.41L370.13 408.41L370.04 408.41L369.95 408.41L369.86 408.4L369.77 408.39L369.68 408.37L369.59 408.35L369.51 408.33L369.42 408.3L369.34 408.27L369.26 408.23L369.18 408.19L369.1 408.14L369.03 408.09L368.95 408.03L368.88 407.97L368.81 407.9L358.71 397.84L358.64 397.77L358.58 397.7L358.52 397.63L358.47 397.55L358.43 397.48L358.38 397.4L358.35 397.32L358.32 397.24L358.29 397.16L358.27 397.08L358.25 396.99L358.24 396.91L358.23 396.82L358.22 396.73L358.22 396.64L358.23 396.55L358.23 396.46L358.24 396.37L358.26 396.28L358.27 396.18L358.29 396.09L358.32 395.99L358.34 395.89L358.37 395.79L358.4 395.69L358.44 395.59L358.48 395.49L358.51 395.38L358.56 395.28L358.6 395.17L358.65 395.07L358.69 394.96L358.74 394.85L358.79 394.74L358.85 394.63L358.9 394.52L358.95 394.41L359.01 394.3L359.07 394.18L359.13 394.07L363.12 387.19L363.06 387.07L362.39 385.73L361.78 384.36L361.22 382.96L360.71 381.54L360.51 380.9L352.78 378.85L352.66 378.81L352.54 378.77L352.42 378.73L352.3 378.69L352.18 378.65L352.07 378.6L351.96 378.56L351.84 378.52L351.73 378.48L351.63 378.44L351.52 378.39L351.42 378.35L351.32 378.3L351.22 378.25L351.12 378.21L351.03 378.16L350.94 378.11L350.85 378.06L350.76 378.01L350.68 377.95L350.6 377.9L350.52 377.84L350.45 377.78L350.38 377.72L350.32 377.66L350.25 377.6L350.2 377.53L350.14 377.46L350.09 377.39L350.04 377.32L350 377.25L349.96 377.17L349.92 377.09L349.89 377.01L349.87 376.93L349.85 376.84L349.83 376.76L349.82 376.66L349.81 376.57L349.81 376.47L349.81 362.24L349.81 362.15L349.82 362.05L349.83 361.96L349.85 361.87L349.87 361.78L349.89 361.7L349.92 361.61L349.96 361.53L350 361.45L350.04 361.37L350.09 361.3L350.14 361.23L350.2 361.15L350.25 361.09L350.32 361.02L350.38 360.95L350.45 360.89L350.52 360.83L350.6 360.77L350.68 360.71L350.76 360.65L350.85 360.6L350.94 360.54L351.03 360.49L351.12 360.44L351.22 360.4L351.32 360.35L351.42 360.3L351.52 360.26L351.63 360.22L351.73 360.18L351.84 360.14L351.96 360.1L352.07 360.06L352.18 360.03L352.3 360L352.42 359.96L352.54 359.93L352.66 359.9L352.78 359.87L360.51 357.82L360.71 357.18L361.22 355.75L361.78 354.36L362.39 352.99L363.06 351.65L363.13 351.51L359.13 344.62L359.07 344.51L359.01 344.39L358.95 344.28L358.9 344.17L358.85 344.06L358.79 343.95L358.74 343.84L358.69 343.73L358.65 343.62L358.6 343.52L358.56 343.41L358.51 343.31L358.48 343.2L358.44 343.1L358.4 343L358.37 342.9L358.34 342.8L358.32 342.7L358.29 342.6L358.27 342.51L358.26 342.41L358.24 342.32L358.23 342.23L358.23 342.13L358.22 342.04L358.22 341.96L358.23 341.87L358.24 341.78L358.25 341.7L358.27 341.61L358.29 341.53L358.32 341.45L358.35 341.37L358.38 341.29L358.43 341.21L358.47 341.14L358.52 341.06L358.58 340.99L358.64 340.92L358.71 340.85L368.81 330.79L368.88 330.72L368.95 330.66L369.03 330.6L369.1 330.55L369.18 330.5L369.26 330.46L369.34 330.42L369.42 330.39L369.51 330.36L369.59 330.34L369.68 330.32L369.77 330.3L369.86 330.29L369.95 330.28L370.04 330.28L370.13 330.28L370.23 330.28L370.32 330.29L370.42 330.3L370.52 330.31L370.61 330.33L370.71 330.35L370.81 330.38L370.91 330.41L371.02 330.44L371.12 330.47L371.22 330.51L371.32 330.55L371.43 330.59L371.53 330.63L371.64 330.68L371.74 330.73L371.85 330.78L371.96 330.84L372.06 330.89L372.17 330.95L372.28 331.01L372.38 331.07L372.49 331.14L372.6 331.2L379.52 335.19L379.65 335.12L381 334.46L382.37 333.85L383.78 333.29L385.2 332.78L385.85 332.58L387.91 324.89L387.94 324.77L387.97 324.64L388 324.53L388.03 324.41L388.07 324.29L388.1 324.18L388.14 324.06L388.18 323.95L388.22 323.84L388.26 323.73L388.3 323.63L388.34 323.53L388.39 323.43L388.44 323.33L388.48 323.23L388.53 323.14L388.59 323.05L388.64 322.96L388.69 322.87L388.75 322.79L388.81 322.71L388.87 322.64L388.93 322.56L389 322.5L389.06 322.43L389.13 322.37L389.2 322.31L389.27 322.25L389.34 322.2L389.42 322.16L389.5 322.11L389.58 322.07L389.66 322.04L389.74 322.01L389.83 321.98L389.92 321.96L390.01 321.95L390.1 321.93L390.19 321.93L390.29 321.92L404.58 321.92L404.68 321.93L404.77 321.93ZM395.73 348.67L394.89 348.76L394.06 348.88L393.24 349.03L392.43 349.21L391.63 349.42L390.85 349.66L390.08 349.94L389.33 350.24L388.58 350.57L387.86 350.92L387.15 351.31L386.46 351.72L385.79 352.15L385.13 352.61L384.49 353.09L383.88 353.6L383.28 354.13L382.7 354.68L382.15 355.26L381.61 355.85L381.1 356.47L380.62 357.1L380.16 357.76L379.72 358.43L379.31 359.12L378.92 359.82L378.57 360.54L378.24 361.28L377.93 362.03L377.66 362.8L377.42 363.58L377.2 364.37L377.02 365.18L376.87 365.99L376.75 366.82L376.67 367.66L376.62 368.5L376.6 369.36L376.62 370.21L376.67 371.06L376.75 371.9L376.87 372.73L377.02 373.54L377.2 374.35L377.42 375.14L377.66 375.92L377.93 376.68L378.24 377.44L378.57 378.17L378.92 378.9L379.31 379.6L379.72 380.29L380.16 380.96L380.62 381.62L381.1 382.25L381.61 382.86L382.15 383.46L382.7 384.03L383.28 384.59L383.88 385.12L384.49 385.62L385.13 386.11L385.79 386.57L386.46 387L387.15 387.41L387.86 387.8L388.58 388.15L389.33 388.48L390.08 388.78L390.85 389.05L391.63 389.3L392.43 389.51L393.24 389.69L394.06 389.84L394.89 389.96L395.73 390.04L396.58 390.09L397.44 390.11L398.29 390.09L399.14 390.04L399.99 389.96L400.82 389.84L401.64 389.69L402.44 389.51L403.24 389.3L404.02 389.05L404.79 388.78L405.55 388.48L406.29 388.15L407.01 387.8L407.72 387.41L408.41 387L409.09 386.57L409.74 386.11L410.38 385.62L411 385.12L411.59 384.59L412.17 384.03L412.72 383.46L413.26 382.86L413.77 382.25L414.25 381.62L414.71 380.96L415.15 380.29L415.56 379.6L415.95 378.9L416.31 378.17L416.64 377.44L416.94 376.68L417.21 375.92L417.45 375.14L417.67 374.35L417.85 373.54L418 372.73L418.12 371.9L418.2 371.06L418.26 370.21L418.27 369.36L418.26 368.5L418.2 367.66L418.12 366.82L418 365.99L417.85 365.18L417.67 364.37L417.45 363.58L417.21 362.8L416.94 362.03L416.64 361.28L416.31 360.54L415.95 359.82L415.56 359.12L415.15 358.43L414.71 357.76L414.25 357.1L413.77 356.47L413.26 355.85L412.72 355.26L412.17 354.68L411.59 354.13L411 353.6L410.38 353.09L409.74 352.61L409.09 352.15L408.41 351.72L407.72 351.31L407.01 350.92L406.29 350.57L405.55 350.24L404.79 349.94L404.02 349.66L403.24 349.42L402.44 349.21L401.64 349.03L400.82 348.88L399.99 348.76L399.14 348.67L398.29 348.62L397.44 348.61L396.58 348.62L395.73 348.67Z" id="c5MXxGftv"></path><path d="M220 199.49L215.04 220.66L209.58 240.2L204.62 259.74" id="e3jbx7p9rJ"></path><path d="M187.95 216.79L172.56 229.62L187.95 242.44" id="b2tJ3U9kdX"></path><path d="M236.67 218.08L254.62 228.33L239.23 241.15" id="fU3jzpqsj"></path></defs><g><g><g><use xlink:href="#d9DS1ITsr7" opacity="1" fill="#dde6ec" fill-opacity="1"></use><g><use xlink:href="#d9DS1ITsr7" opacity="1" fill-opacity="0" stroke="#121314" stroke-width="3" stroke-opacity="1"></use></g><g><filter id="shadow4023564" x="208.69" y="89.46" width="238" height="334.87" filterUnits="userSpaceOnUse" primitiveUnits="userSpaceOnUse"><feFlood></feFlood><feComposite in2="SourceAlpha" operator="out"></feComposite><feGaussianBlur stdDeviation="0"></feGaussianBlur><feOffset dx="0" dy="-2" result="afterOffset"></feOffset><feFlood flood-color="#0f2353" flood-opacity="0.8"></feFlood><feComposite in2="afterOffset" operator="in"></feComposite><feMorphology operator="dilate" radius="12"></feMorphology><feComposite in2="SourceAlpha" operator="in"></feComposite></filter><path d="M407.69 108.46C418.74 108.46 427.69 117.42 427.69 128.46C427.69 183.44 427.69 328.36 427.69 383.33C427.69 394.38 418.74 403.33 407.69 403.33C371.69 403.33 283.69 403.33 247.69 403.33C236.65 403.33 227.69 394.38 227.69 383.33C227.69 328.36 227.69 183.44 227.69 128.46C227.69 117.42 236.65 108.46 247.69 108.46C283.69 108.46 371.69 108.46 407.69 108.46Z" id="aDC77zlah" fill="white" fill-opacity="1" filter="url(#shadow4023564)"></path></g></g><g><use xlink:href="#b4wK1nnBj" opacity="1" fill="#76c1f5" fill-opacity="1"></use><g><use xlink:href="#b4wK1nnBj" opacity="1" fill-opacity="0" stroke="#070d11" stroke-width="10" stroke-opacity="1"></use></g></g><g><use xlink:href="#a1EAbiyhpo" opacity="1" fill="#152c53" fill-opacity="1"></use></g><g><use xlink:href="#diPRjSywK" opacity="1" fill="#e48610" fill-opacity="1"></use></g><g><use xlink:href="#c5MXxGftv" opacity="1" fill="#e6e6e6" fill-opacity="1"></use><g><use xlink:href="#c5MXxGftv" opacity="1" fill-opacity="0" stroke="#070d11" stroke-width="7" stroke-opacity="1"></use></g></g><g><g><use xlink:href="#e3jbx7p9rJ" opacity="1" fill-opacity="0" stroke="#070d11" stroke-width="4" stroke-opacity="1"></use></g></g><g><g><use xlink:href="#b2tJ3U9kdX" opacity="1" fill-opacity="0" stroke="#070d11" stroke-width="4" stroke-opacity="1"></use></g></g><g><g><use xlink:href="#fU3jzpqsj" opacity="1" fill-opacity="0" stroke="#070d11" stroke-width="4" stroke-opacity="1"></use></g></g></g></g></svg>